<svg width="200" height="200" viewBox="0 0 200 200" xmlns="http://www.w3.org/2000/svg">
  <!-- Background Shield (Risk Management) -->
  <path d="M100 20 C100 20 160 30 160 80 C160 140 100 180 100 180 C100 180 40 140 40 80 C40 30 100 20 100 20Z" fill="#239471" stroke="#1a6e54" stroke-width="8" />

  <!-- "T" for Typst / Toy -->
  <rect x="60" y="60" width="80" height="15" rx="4" fill="white" />
  <rect x="92" y="60" width="16" height="70" rx="4" fill="white" />

  <!-- Bar Chart / Finance Elements (Toy style) -->
  <rect x="70" y="105" width="12" height="25" rx="2" fill="#FFD700" />
  <rect x="85" y="115" width="12" height="15" rx="2" fill="#FFD700" />
  <rect x="103" y="110" width="12" height="20" rx="2" fill="#FFD700" />
  <rect x="118" y="100" width="12" height="30" rx="2" fill="#FFD700" />

  <!-- Playful "Toy" Highlight -->
  <circle cx="100" cy="45" r="8" fill="#FFD700" />
</svg>
